<?xml version="1.0" encoding="UTF-8" standalone="no"?>
<!-- Created with Inkscape (http://www.inkscape.org/) -->

<svg
   width="297mm"
   height="210mm"
   viewBox="0 0 297 210"
   version="1.1"
   id="svg1"
   inkscape:version="1.3 (0e150ed6c4, 2023-07-21)"
   sodipodi:docname="start screen.svg"
   xmlns:inkscape="http://www.inkscape.org/namespaces/inkscape"
   xmlns:sodipodi="http://sodipodi.sourceforge.net/DTD/sodipodi-0.dtd"
   xmlns:xlink="http://www.w3.org/1999/xlink"
   xmlns="http://www.w3.org/2000/svg"
   xmlns:svg="http://www.w3.org/2000/svg">
  <sodipodi:namedview
     id="namedview1"
     pagecolor="#ffffff"
     bordercolor="#000000"
     borderopacity="0.25"
     inkscape:showpageshadow="2"
     inkscape:pageopacity="0.0"
     inkscape:pagecheckerboard="0"
     inkscape:deskcolor="#d1d1d1"
     inkscape:document-units="mm"
     inkscape:zoom="0.64126689"
     inkscape:cx="570.7452"
     inkscape:cy="442.09362"
     inkscape:window-width="1366"
     inkscape:window-height="705"
     inkscape:window-x="-8"
     inkscape:window-y="-8"
     inkscape:window-maximized="1"
     inkscape:current-layer="layer1" />
  <defs
     id="defs1">
    <color-profile
       name="Agfa-:-Swop-Standard"
       xlink:href="../../../../../WINDOWS/system32/spool/drivers/color/RSWOP.icm"
       id="color-profile2" />
  </defs>
  <g
     inkscape:label="Layer 1"
     inkscape:groupmode="layer"
     id="layer1"
     style="fill:#000000">
    <rect
       style="fill:#4d4d4d;stroke:#000000;stroke-width:0.806"
       id="rect2"
       width="307.38309"
       height="212.07368"
       x="-6.6015291"
       y="-1.2377834"
       ry="0.48736981" />
    <rect
       style="fill:#ff0000;stroke:#000000;stroke-width:0.559321"
       id="rect1-0-1"
       width="2.9103203"
       height="97.349747"
       x="163.8826"
       y="108.55855"
       ry="1.0140599" />
    <rect
       style="fill:#ff0000;stroke:#000000;stroke-width:0.559321"
       id="rect1-0-0"
       width="2.9103203"
       height="97.349747"
       x="6.8536181"
       y="109.28165"
       ry="1.0140599" />
    <path
       id="path1-1"
       style="fill:#000000;stroke:#000000;stroke-width:0.27276"
       d="m 165.95913,146.77511 15.92444,-21.35243 15.1881,21.56828 z m -61.15158,-0.24087 15.92444,-21.35243 15.1881,21.56829 z m 29.99686,0.0513 15.92445,-21.35244 15.18809,21.56829 z" />
    <path
       id="rect1"
       style="fill:#ffff00;stroke:#000000;stroke-width:0.719525"
       d="m 106.41124,146.42789 h 90.84724 c 1.8314,0 3.30578,1.73459 3.30578,3.88924 v 27.37853 c 0,2.15465 -1.47438,3.88926 -3.30578,3.88926 h -90.84724 c -1.83141,0 -3.3058,-1.73461 -3.3058,-3.88926 v -27.37853 c 0,-2.15465 1.47439,-3.88924 3.3058,-3.88924 z m 21.18253,20.0458 q 0,0.75859 -0.46752,1.49975 -0.45613,0.74116 -1.28855,1.2556 -0.91224,0.55805 -2.13237,0.87194 -1.20872,0.31391 -2.91917,0.31391 -1.83589,0 -3.30689,-0.26158 -1.45959,-0.26158 -2.97618,-0.77603 v -2.16243 h 0.15964 q 1.28853,0.81963 2.97619,1.26431 1.68764,0.44471 3.17004,0.44471 2.09816,0 3.26127,-0.60164 1.17451,-0.60166 1.17451,-1.60438 0,-0.86324 -0.55875,-1.27306 -0.54735,-0.40981 -1.67624,-0.63651 -0.85523,-0.17439 -1.8587,-0.28775 -0.99206,-0.11332 -2.10956,-0.28774 -2.2578,-0.36621 -3.35249,-1.24688 -1.08329,-0.88938 -1.08329,-2.31065 0,-1.63055 1.80167,-2.66816 1.80169,-1.04633 4.57262,-1.04633 1.79029,0 3.28409,0.26158 1.49379,0.26158 2.6455,0.64523 v 2.04037 h -0.15964 q -0.96926,-0.62781 -2.55428,-1.03763 -1.57363,-0.41854 -3.22707,-0.41854 -1.81308,0 -2.91918,0.57551 -1.09469,0.57547 -1.09469,1.4823 0,0.8109 0.54735,1.27302 0.54734,0.46214 1.92712,0.70629 0.72979,0.12208 2.07535,0.29647 1.34555,0.17438 2.28061,0.35749 1.8929,0.38365 2.85076,1.15969 0.95785,0.77603 0.95785,2.17114 z m 15.7362,-7.74289 h -6.06643 v 11.44866 h -2.25779 V 158.7308 h -6.06642 v -1.53462 h 14.39064 z m 14.29941,11.44866 h -2.40604 l -1.66485,-3.61858 h -7.34355 l -1.66484,3.61858 h -2.29202 l 6.18045,-12.98328 h 3.0104 z m -4.76646,-5.10088 -2.9762,-6.37393 -2.98761,6.37393 z m 21.39209,5.10088 h -2.93058 l -5.67872,-5.16192 h -3.18143 v 5.16192 h -2.25781 v -12.98328 h 4.75507 q 1.53941,0 2.56569,0.15693 1.02628,0.14818 1.84728,0.54062 0.92365,0.4447 1.43679,1.12482 0.52454,0.67138 0.52454,1.70901 0,1.40384 -0.92365,2.35425 -0.92364,0.9417 -2.54287,1.42126 z m -5.2796,-9.32981 q 0,-0.55805 -0.26227,-0.98531 -0.25087,-0.43597 -0.84382,-0.73244 -0.49033,-0.25286 -1.16312,-0.34877 -0.67278,-0.10456 -1.58502,-0.10456 h -2.6569 v 4.90036 h 2.28061 q 1.07188,0 1.87009,-0.13959 0.79822,-0.14817 1.35697,-0.54058 0.51313,-0.36623 0.75259,-0.83707 0.25087,-0.47958 0.25087,-1.21201 z m 18.89485,-2.11885 h -6.06643 v 11.44866 h -2.2578 V 158.7308 h -6.06642 v -1.53462 h 14.39065 z" />
    <rect
       style="fill:#ff0000;stroke:#000000;stroke-width:0.559321"
       id="rect1-0"
       width="2.9103203"
       height="97.349747"
       x="40.864689"
       y="1.9710462"
       ry="1.0140599" />
    <rect
       style="fill:#ff0000;stroke:#000000;stroke-width:0.559321"
       id="rect1-0-2"
       width="2.9103203"
       height="97.349747"
       x="71.539131"
       y="71.510155"
       ry="1.0140599" />
    <rect
       style="fill:#ff0000;stroke:#000000;stroke-width:0.372418"
       id="rect1-0-4"
       width="2.6846287"
       height="46.787498"
       x="121.03014"
       y="4.9811883"
       ry="0.48736981" />
    <rect
       style="fill:#ff0000;stroke:#000000;stroke-width:0.372418"
       id="rect1-0-4-7"
       width="2.6846287"
       height="46.787498"
       x="120.68819"
       y="73.865097"
       ry="0.48736981" />
    <rect
       style="fill:#ff0000;stroke:#000000;stroke-width:0.647187"
       id="rect1-0-4-7-6"
       width="2.8224552"
       height="134.3954"
       x="224.87604"
       y="5.626904"
       ry="1.3999523" />
    <rect
       style="fill:#ff0000;stroke:#000000;stroke-width:0.372418"
       id="rect1-0-4-9"
       width="2.6846287"
       height="46.787498"
       x="263.45581"
       y="19.10903"
       ry="0.48736981" />
    <rect
       style="fill:#ff0000;stroke:#000000;stroke-width:0.372418"
       id="rect1-0-4-3"
       width="2.6846287"
       height="46.787498"
       x="264.47351"
       y="103.70259"
       ry="0.48736981" />
  </g>
</svg>
